<svg xmlns="http://www.w3.org/2000/svg" x="0px" y="0px" width="100" height="100" viewBox="0,0,256,256">
<g fill="#302424" fill-rule="nonzero" stroke="none" stroke-width="1" stroke-linecap="butt" stroke-linejoin="miter" stroke-miterlimit="10" stroke-dasharray="" stroke-dashoffset="0" font-family="none" font-weight="none" font-size="none" text-anchor="none" style="mix-blend-mode: normal"><g transform="scale(10.66667,10.66667)"><path d="M10,2c-4.40644,0 -8,3.59357 -8,8c0,4.40643 3.59356,8 8,8c1.83757,0 3.45541,-0.72912 4.80859,-1.77734l5.05859,5.05859l0.70703,0.70703l1.41406,-1.41406l-0.70703,-0.70703l-5.05859,-5.05859c1.04822,-1.35318 1.77734,-2.97103 1.77734,-4.80859c0,-4.40643 -3.59356,-8 -8,-8zM10,4c3.32556,0 6,2.67445 6,6c0,3.32555 -2.67444,6 -6,6c-3.32556,0 -6,-2.67445 -6,-6c0,-3.32555 2.67444,-6 6,-6z"></path></g></g>
</svg>