<svg xmlns="http://www.w3.org/2000/svg" x="0px" y="0px" width="100" height="100" viewBox="0 0 24 24">
<path d="M 12 2.0078125 C 6.477 2.0078125 2 6.4848125 2 12.007812 C 2 17.530812 6.477 22.007812 12 22.007812 C 17.523 22.007812 22 17.530812 22 12.007812 C 22 6.4858125 17.523 2.0078125 12 2.0078125 z M 12 3.5078125 C 16.687 3.5078125 20.5 7.3208125 20.5 12.007812 C 20.5 16.694813 16.687 20.507812 12 20.507812 C 7.313 20.507812 3.5 16.694812 3.5 12.007812 C 3.5 7.3208125 7.313 3.5078125 12 3.5078125 z M 10.132812 6.9941406 C 9.2446776 6.9848608 8.383546 7.0606673 7.59375 7.2324219 L 6.8613281 7.3925781 L 7.1796875 8.8574219 L 7.9121094 8.6992188 C 10.500925 8.1362368 14.709071 8.9594001 16.839844 10.369141 L 17.464844 10.783203 L 18.292969 9.53125 L 17.666016 9.1171875 C 15.704595 7.8194926 12.79722 7.0219801 10.132812 6.9941406 z M 9.9316406 9.9863281 C 9.1183377 9.9787981 8.3237685 10.055055 7.5878906 10.220703 L 6.8574219 10.384766 L 7.1855469 11.847656 L 7.9179688 11.683594 C 10.296457 11.148188 13.994711 11.914349 15.794922 13.339844 L 16.382812 13.804688 L 17.314453 12.628906 L 16.726562 12.164062 C 14.985221 10.785184 12.371549 10.008919 9.9316406 9.9863281 z M 9.7089844 12.996094 C 8.9663767 13.010554 8.2369879 13.109317 7.5566406 13.292969 L 6.8320312 13.490234 L 7.2226562 14.9375 L 7.9472656 14.742188 C 10.115876 14.156795 13.249744 14.767828 14.707031 16.283203 L 15.226562 16.824219 L 16.306641 15.785156 L 15.787109 15.244141 C 14.283575 13.680673 11.936807 12.952704 9.7089844 12.996094 z"></path>
</svg>